<?xml version="1.0" encoding="UTF-8" standalone="no"?>
<!DOCTYPE svg PUBLIC "-//W3C//DTD SVG 1.1//EN" "http://www.w3.org/Graphics/SVG/1.1/DTD/svg11.dtd">
<svg width="100%" height="100%" viewBox="0 0 4747 3584" version="1.1" xmlns="http://www.w3.org/2000/svg" xmlns:xlink="http://www.w3.org/1999/xlink" xml:space="preserve" xmlns:serif="http://www.serif.com/" style="fill-rule:evenodd;clip-rule:evenodd;stroke-linejoin:round;stroke-miterlimit:2;">
    <g transform="matrix(1,0,0,1,-3.55271e-15,-2961.33)">
        <g id="Face" transform="matrix(3.68262,0,0,3.68262,-9.53059e-15,-1887.2)">
            <rect x="0" y="1316.6" width="1288.93" height="973.137" style="fill:none;"/>
            <g transform="matrix(31.2186,0,0,30.2772,11681.2,-8225.81)">
                <g transform="matrix(0.934552,0,0,1.23537,-1191.43,-178.394)">
                    <ellipse cx="880.492" cy="406.365" rx="4.266" ry="4.305"/>
                </g>
                <g transform="matrix(0.94339,0,0,1.23537,-1169.44,-178.337)">
                    <ellipse cx="880.492" cy="406.365" rx="4.266" ry="4.305"/>
                </g>
                <g transform="matrix(0.395504,0,0,0.42453,-687.323,149.378)">
                    <ellipse cx="880.492" cy="406.365" rx="4.266" ry="4.305" style="fill:white;"/>
                </g>
                <g transform="matrix(0.395504,0,0,0.42453,-716.715,149.214)">
                    <ellipse cx="880.492" cy="406.365" rx="4.266" ry="4.305" style="fill:white;"/>
                </g>
            </g>
            <g transform="matrix(30.2772,0,0,30.2772,11355.3,-8234.27)">
                <path d="M-352.349,334.187C-351.49,335.626 -350.758,336.366 -349.946,336.491C-349.384,336.577 -348.851,336.311 -348.295,335.933C-347.51,335.399 -346.726,334.618 -345.912,333.777C-345.432,333.281 -344.64,333.268 -344.144,333.748C-343.648,334.228 -343.636,335.02 -344.115,335.515C-344.79,336.213 -345.456,336.866 -346.114,337.41C-346.323,339.128 -347.473,340.832 -348.96,342.099C-350.593,343.489 -352.595,344.31 -353.942,344.24C-355.347,344.167 -357.058,343.482 -358.442,342.322C-359.691,341.275 -360.664,339.857 -360.969,338.223C-362.33,337.35 -363.337,336.117 -363.687,335.644C-363.698,335.63 -364.071,335.233 -364.082,334.668C-364.094,333.982 -363.516,333.519 -362.745,333.629C-362.212,333.705 -361.738,334.198 -361.738,334.198C-361.5,334.519 -360.806,335.306 -359.926,335.946C-359.734,336.086 -359.529,336.219 -359.313,336.331C-359.272,336.35 -359.232,336.371 -359.192,336.391C-358.891,336.534 -358.571,336.635 -358.233,336.659C-357.198,336.735 -356.151,336.055 -355.039,334.202C-356.896,333.711 -357.932,332.169 -358.638,330.5C-359.938,327.428 -357.421,326.644 -353.728,326.636C-349.708,326.627 -347.555,327.226 -348.819,330.5C-349.461,332.163 -350.516,333.681 -352.349,334.187ZM-349.422,338.993C-349.723,339.018 -350.024,339.008 -350.326,338.962C-351.387,338.798 -352.531,338.143 -353.687,336.649C-355.125,338.504 -356.617,339.127 -357.947,339.164C-357.648,339.633 -357.261,340.05 -356.836,340.406C-355.901,341.19 -354.763,341.694 -353.813,341.743C-352.923,341.789 -351.66,341.114 -350.581,340.195C-350.155,339.833 -349.753,339.428 -349.422,338.993Z"/>
            </g>
            <g transform="matrix(30.2772,0,0,30.2772,11315.6,-8032.7)">
                <path d="M-348.112,332.335C-348.443,332.77 -348.845,333.176 -349.27,333.538C-350.349,334.456 -351.612,335.132 -352.503,335.086C-353.452,335.037 -354.591,334.532 -355.526,333.749C-355.951,333.392 -356.337,332.975 -356.637,332.506C-355.307,332.47 -353.815,331.846 -352.377,329.991C-351.221,331.485 -350.077,332.141 -349.016,332.304C-348.714,332.351 -348.413,332.36 -348.112,332.335Z" style="fill:rgb(255,188,209);"/>
            </g>
        </g>
    </g>
</svg>
