<?xml version="1.0" encoding="UTF-8" standalone="no"?>
<!DOCTYPE svg PUBLIC "-//W3C//DTD SVG 1.1//EN" "http://www.w3.org/Graphics/SVG/1.1/DTD/svg11.dtd">
<svg width="100%" height="100%" viewBox="0 0 5880 3634" version="1.1" xmlns="http://www.w3.org/2000/svg" xmlns:xlink="http://www.w3.org/1999/xlink" xml:space="preserve" xmlns:serif="http://www.serif.com/" style="fill-rule:evenodd;clip-rule:evenodd;stroke-linejoin:round;stroke-miterlimit:2;">
    <g transform="matrix(1,0,0,1,-4211.73,-4164.95)">
        <g id="Horizontal" transform="matrix(4.9415,0,0,3.34095,-5097.16,4164.95)">
            <rect x="1883.82" y="-0" width="1189.78" height="1087.62" style="fill:none;"/>
            <g transform="matrix(0.536547,0,0,1.40463,847.77,16.9668)">
                <g transform="matrix(1,0,0,1,4.33569,-15.9887)">
                    <g transform="matrix(2.11208,0,0,1.19328,1859.14,-514.622)">
                        <circle cx="291.294" cy="779.135" r="226.587" style="fill:rgb(150,244,212);"/>
                    </g>
                    <g transform="matrix(2.20854,0,0,1.24778,1240.61,-288.897)">
                        <path d="M551.18,435.348C553.273,434.139 555.852,434.139 557.946,435.348L711.043,523.739C713.137,524.947 714.427,527.181 714.427,529.598L714.427,706.38C714.427,708.798 713.137,711.031 711.043,712.24L557.946,800.631C555.852,801.84 553.273,801.84 551.18,800.631L398.082,712.24C395.988,711.031 394.699,708.798 394.699,706.38L394.699,529.598C394.699,527.181 395.988,524.947 398.082,523.739L551.18,435.348Z" style="fill:rgb(235,235,235);fill-opacity:0.61;"/>
                    </g>
                    <g transform="matrix(2.37495,0,0,1.3418,1405.76,-93.8495)">
                        <path d="M443.141,606.462C435.238,605.999 427.417,603.72 420.326,599.626L311.603,536.855C295.613,527.623 285.762,510.561 285.762,492.096L285.762,366.554C285.762,358.366 287.699,350.454 291.25,343.378C292.155,341.573 293.166,339.822 294.276,338.136C298.629,331.523 304.512,325.889 311.603,321.795L420.326,259.024C436.317,249.792 456.018,249.792 472.009,259.024L580.732,321.795C596.723,331.027 606.574,348.089 606.574,366.554L606.574,492.096C606.574,510.561 596.723,527.623 580.732,536.855L472.009,599.626C464.918,603.72 457.097,605.999 449.194,606.462C447.178,606.58 445.157,606.58 443.141,606.462ZM300.134,352.16C300.119,352.151 300.101,352.15 300.084,352.155C300.068,352.161 300.054,352.174 300.048,352.191C298.313,356.705 297.385,361.564 297.385,366.554L297.385,492.096C297.385,506.408 305.02,519.633 317.415,526.789L426.138,589.56C430.459,592.055 435.131,593.68 439.908,594.436C439.926,594.438 439.943,594.433 439.957,594.422C439.97,594.411 439.978,594.394 439.978,594.376L439.978,432.933C439.978,432.912 439.966,432.892 439.948,432.881L300.134,352.16ZM586.011,341.439C586.026,341.43 586.037,341.415 586.04,341.398C586.043,341.38 586.039,341.363 586.028,341.349C582.985,337.589 579.242,334.356 574.92,331.861L466.198,269.09C453.803,261.934 438.532,261.934 426.138,269.09L317.415,331.861C313.093,334.356 309.35,337.589 306.307,341.349C306.296,341.363 306.292,341.38 306.295,341.398C306.298,341.415 306.309,341.43 306.324,341.439L446.138,422.16C446.156,422.171 446.179,422.171 446.198,422.16L586.011,341.439ZM452.358,594.376C452.358,594.394 452.365,594.411 452.379,594.422C452.392,594.433 452.41,594.438 452.427,594.436C457.204,593.68 461.876,592.055 466.198,589.56L574.92,526.789C587.315,519.633 594.95,506.408 594.95,492.096L594.95,366.554C594.95,361.564 594.022,356.705 592.287,352.191C592.281,352.174 592.268,352.161 592.251,352.155C592.235,352.15 592.216,352.151 592.201,352.16L452.388,432.881C452.369,432.892 452.358,432.912 452.358,432.933L452.358,594.376Z"/>
                    </g>
                    <g transform="matrix(2.37495,0,0,1.3418,1405.76,-93.8495)">
                        <path d="M300.293,351.885L440.107,432.606C440.224,432.673 440.296,432.798 440.296,432.933L440.296,594.376C440.296,594.487 440.248,594.592 440.163,594.664C440.079,594.736 439.968,594.767 439.859,594.75C435.043,593.989 430.335,592.351 425.979,589.836L317.256,527.065C304.763,519.852 297.067,506.522 297.067,492.096L297.067,366.554C297.067,361.524 298.003,356.627 299.751,352.076C299.791,351.973 299.874,351.892 299.978,351.856C300.082,351.819 300.197,351.829 300.293,351.885Z" style="fill:rgb(148,243,211);"/>
                    </g>
                    <g transform="matrix(2.37495,0,0,1.3418,1405.76,-93.8495)">
                        <path d="M452.039,594.376L452.039,432.933C452.039,432.798 452.111,432.673 452.229,432.606L592.042,351.885C592.138,351.829 592.253,351.819 592.357,351.856C592.462,351.892 592.545,351.973 592.584,352.076C594.333,356.627 595.269,361.524 595.269,366.554L595.269,492.096C595.269,506.522 587.572,519.852 575.079,527.065L466.357,589.836C462.001,592.351 457.292,593.989 452.477,594.75C452.367,594.767 452.256,594.736 452.172,594.664C452.088,594.592 452.039,594.487 452.039,594.376Z" style="fill:rgb(214,184,155);"/>
                    </g>
                    <g transform="matrix(2.37495,0,0,1.3418,1405.76,-93.8495)">
                        <path d="M586.17,341.714L446.357,422.436C446.24,422.503 446.096,422.503 445.979,422.436L306.165,341.714C306.069,341.659 306.002,341.565 305.982,341.456C305.962,341.347 305.99,341.235 306.06,341.149C309.127,337.359 312.9,334.1 317.256,331.585L425.979,268.814C438.472,261.602 453.864,261.602 466.357,268.814L575.079,331.585C579.436,334.1 583.208,337.359 586.275,341.149C586.345,341.235 586.373,341.347 586.353,341.456C586.333,341.565 586.266,341.659 586.17,341.714Z" style="fill:rgb(251,255,255);"/>
                    </g>
                    <g transform="matrix(0.816268,0,0,0.461175,772.788,173.825)">
                        <g transform="matrix(1,0,0,1,-366.145,-96.0581)">
                            <path d="M2801.59,910.288C2793.93,901.143 2775.58,907.071 2762.62,918.001C2746.04,931.358 2731.53,954.249 2719.84,965.775C2683.57,1003.38 2637.62,1019.97 2614.12,1004.15C2584.31,984.151 2590.92,918.508 2612.89,865.088C2633.84,814.002 2695.28,767.617 2730.18,783.075C2740.34,788.249 2751.76,794.322 2771.59,778.494C2819.18,741.437 2783.52,710.996 2760.68,706.891C2725.25,699.225 2653.6,734.84 2610.35,781.028C2553.73,840.63 2524.04,914.036 2520.49,960.388C2515.91,1012.27 2519.14,1078.63 2568.32,1086.67C2609.74,1093.63 2668.99,1071.35 2716.09,1036.74C2758.96,1004.33 2821.35,934.543 2801.59,910.288Z" style="fill-rule:nonzero;"/>
                        </g>
                    </g>
                    <g transform="matrix(0.784126,0,0,0.443016,722.18,183.904)">
                        <g transform="matrix(1.9613,0,0,1.9613,-3846.93,-1270.66)">
                            <g transform="matrix(204.478,0,0,204.478,2890.16,1121.65)">
                                <path d="M0.784,-0.438L0.772,-0.474L0.742,-0.506L0.717,-0.525L0.692,-0.53L0.676,-0.524L0.665,-0.507L0.656,-0.484L0.651,-0.461L0.646,-0.445L0.587,-0.231L0.552,-0.091L0.485,-0.331L0.431,-0.45C0.38,-0.5 0.354,-0.459 0.331,-0.402L0.269,-0.227L0.225,-0.479L0.181,-0.729L0.176,-0.758L0.169,-0.79L0.157,-0.821L0.142,-0.844L0.116,-0.868L0.09,-0.879L0.062,-0.88L0.046,-0.859L0.046,-0.813L0.078,-0.595L0.109,-0.425L0.149,-0.215L0.168,-0.117L0.186,-0.044L0.215,0.012C0.274,0.087 0.311,0.038 0.341,-0.03L0.406,-0.209L0.467,0.032L0.527,0.184C0.555,0.222 0.595,0.249 0.625,0.197L0.651,0.133L0.707,-0.089L0.775,-0.349L0.776,-0.352L0.784,-0.393L0.784,-0.438Z" style="fill-rule:nonzero;"/>
                            </g>
                        </g>
                    </g>
                </g>
                <g transform="matrix(5.66463,0,0,3.20041,4471.05,-854.484)">
                    <g>
                        <path d="M-322.148,342.369C-323.219,343.175 -324.306,343.729 -326.203,343.981C-328.219,344.248 -330.89,344.306 -334.611,344.348C-335.761,344.361 -336.684,345.305 -336.671,346.455C-336.658,347.605 -335.714,348.528 -334.564,348.515C-330.621,348.47 -327.792,348.394 -325.656,348.111C-323.295,347.799 -321.655,347.243 -320.321,346.297C-318.947,349.21 -317.091,353.48 -315.827,358.287C-313.836,365.864 -313.284,374.919 -319.469,381.625C-321.335,383.647 -323.784,385.442 -326.939,386.929C-327.964,386.129 -329.635,384.973 -331.634,384.15C-334.054,383.154 -336.919,382.664 -339.733,383.605C-342.404,384.498 -345.136,386.694 -347.281,391.334C-349.48,391.463 -351.815,391.528 -354.292,391.522C-356.148,391.517 -357.919,391.469 -359.606,391.379C-361.75,386.746 -364.474,384.553 -367.132,383.661C-369.939,382.719 -372.795,383.209 -375.206,384.208C-377.134,385.006 -378.756,386.117 -379.783,386.914C-383.013,385.299 -385.44,383.322 -387.214,381.085C-391.639,375.508 -391.816,368.438 -390.559,361.984C-389.199,355.004 -386.127,348.689 -384.337,345.421C-380.53,347.831 -376.175,348.518 -368.746,348.437C-367.596,348.425 -366.673,347.481 -366.685,346.331C-366.698,345.182 -367.641,344.258 -368.791,344.271C-371.849,344.304 -375.987,344.259 -379.041,343.289C-382.697,342.129 -385.057,339.958 -385.634,339.251C-386.627,338.035 -386.958,336.443 -386.839,335.61C-386.611,334.011 -385.486,332.367 -383.263,330.798C-382.582,330.318 -382.253,329.478 -382.426,328.663C-382.599,327.849 -383.24,327.215 -384.057,327.052C-385.332,326.798 -386.68,326.691 -388.223,326.924C-387.043,325.78 -385.48,324.812 -383.646,323.613C-382.927,323.143 -382.57,322.28 -382.747,321.439C-382.924,320.599 -383.599,319.953 -384.447,319.814C-386.187,319.527 -388.268,319.49 -390.334,319.865C-389.08,318.618 -387.587,317.802 -385.872,317.392C-384.886,317.156 -384.212,316.245 -384.276,315.234C-384.618,309.851 -384.06,307.802 -379.989,300.659C-379.57,299.922 -379.638,299.005 -380.163,298.339C-381.543,296.586 -381.545,295.131 -381.275,293.6C-381.151,292.895 -380.984,292.177 -380.827,291.428C-375.871,292.824 -377.034,292.794 -371.954,293.971C-371.374,294.105 -370.765,293.985 -370.279,293.641C-367.033,291.339 -362.254,290.614 -362.254,290.614C-361.494,290.496 -360.861,289.967 -360.608,289.24C-360.608,289.24 -360.061,287.677 -360.142,285.541C-359.21,286.402 -358.453,287.385 -357.87,288.456C-357.474,289.182 -356.686,289.606 -355.862,289.535C-355.038,289.465 -354.334,288.913 -354.068,288.13C-353.753,287.205 -353.641,285.794 -353.728,284.231C-352.845,285.472 -352.173,286.748 -351.836,287.82C-351.537,288.772 -350.605,289.377 -349.614,289.265C-348.623,289.153 -347.851,288.354 -347.772,287.36C-347.648,285.801 -347.604,284.516 -347.638,283.41C-346.01,285.407 -344.869,287.435 -344.6,288.67L-344.599,288.672C-344.423,289.48 -343.786,290.108 -342.975,290.272L-342.965,290.274C-342.709,290.326 -337.766,291.343 -334.559,293.616C-334.073,293.961 -333.464,294.081 -332.884,293.946C-327.804,292.769 -328.967,292.8 -324.011,291.403C-323.854,292.153 -323.687,292.871 -323.563,293.576C-323.293,295.107 -323.295,296.561 -324.675,298.314C-325.2,298.98 -325.268,299.898 -324.849,300.635C-320.79,307.756 -320.574,309.345 -320.915,314.712C-320.968,315.554 -320.508,316.346 -319.749,316.716C-317.534,317.796 -315.84,318.941 -314.533,320.477C-316.442,319.968 -318.278,319.929 -320.437,320.053C-321.396,320.108 -322.194,320.812 -322.367,321.757C-322.54,322.702 -322.044,323.643 -321.167,324.035C-319.625,324.723 -318.412,325.505 -317.469,326.419C-318.307,326.37 -319.168,326.439 -320.097,326.567C-320.911,326.68 -321.583,327.261 -321.812,328.051C-322.041,328.84 -321.784,329.691 -321.157,330.222C-318.309,332.631 -318.339,335.695 -319.13,337.996C-319.232,338.294 -319.592,339.337 -320.225,340.252C-320.953,341.307 -321.969,342.235 -322.148,342.369Z" style="fill:rgb(214,184,155);"/>
                        <g>
                            <path d="M-342.315,390.905C-341.121,389.07 -339.804,388.022 -338.412,387.557C-336.606,386.953 -334.774,387.363 -333.221,388.003C-332.671,388.229 -332.153,388.488 -331.678,388.754C-334.721,389.703 -338.246,390.433 -342.315,390.905ZM-375.128,388.798C-374.66,388.535 -374.151,388.281 -373.612,388.057C-372.07,387.419 -370.252,387.009 -368.457,387.611C-367.067,388.077 -365.752,389.13 -364.557,390.973C-368.625,390.512 -372.126,389.772 -375.128,388.798Z" style="fill:rgb(214,184,155);"/>
                            <g transform="matrix(1.03109,0,0,1,11.6566,-6.37801)">
                                <g transform="matrix(0.934552,0,0,1.23537,-1191.43,-178.394)">
                                    <ellipse cx="880.492" cy="406.365" rx="4.266" ry="4.305"/>
                                </g>
                                <g transform="matrix(0.94339,0,0,1.23537,-1169.44,-178.337)">
                                    <ellipse cx="880.492" cy="406.365" rx="4.266" ry="4.305"/>
                                </g>
                                <g transform="matrix(0.395504,0,0,0.42453,-687.323,149.378)">
                                    <ellipse cx="880.492" cy="406.365" rx="4.266" ry="4.305" style="fill:white;"/>
                                </g>
                                <g transform="matrix(0.395504,0,0,0.42453,-716.715,149.214)">
                                    <ellipse cx="880.492" cy="406.365" rx="4.266" ry="4.305" style="fill:white;"/>
                                </g>
                            </g>
                            <g transform="matrix(-1,0,0,1,541.419,-83.8189)">
                                <path d="M867.558,474.921C867.77,475.06 868.003,475.157 868.244,475.211C868.012,475.116 867.784,475.019 867.558,474.921ZM886.996,479.206C887.092,479.22 887.188,479.227 887.285,479.227C887.189,479.22 887.092,479.213 886.996,479.206Z"/>
                            </g>
                            <g transform="matrix(-1,0,0,1,541.502,-82.7217)">
                                <path d="M926.174,445.925C926.776,444.945 926.469,443.661 925.489,443.06C924.509,442.458 923.225,442.765 922.623,443.745C921.334,445.845 916.982,450.992 911.77,452.7C910.133,453.236 908.458,453.489 907.063,453.298C906.346,453.199 905.71,453.007 905.306,452.559C904.94,452.153 904.85,451.555 904.937,450.779C905.15,448.862 906.39,446.282 908.923,442.824C909.602,441.897 909.401,440.592 908.473,439.912C907.546,439.233 906.241,439.434 905.562,440.362C902.419,444.652 901.061,447.94 900.796,450.317C900.56,452.434 901.104,454.013 902.051,455.163C902.983,456.295 904.363,457.04 906.046,457.353C908.079,457.731 910.609,457.465 913.067,456.66C919.343,454.604 924.621,448.453 926.174,445.925Z"/>
                            </g>
                            <g transform="matrix(1,0,0,1,-1248.5,-83.0537)">
                                <path d="M922.623,443.745C923.225,442.765 924.509,442.458 925.489,443.06C926.469,443.661 926.776,444.945 926.174,445.925C924.621,448.453 919.343,454.604 913.067,456.66C910.609,457.465 908.079,457.731 906.046,457.353C904.363,457.04 902.983,456.295 902.051,455.163C901.104,454.013 900.56,452.434 900.796,450.317C901.061,447.94 902.419,444.652 905.562,440.362C906.241,439.434 907.546,439.233 908.473,439.912C909.401,440.592 909.602,441.897 908.923,442.824C906.771,445.761 905.556,448.085 905.097,449.915C904.803,451.087 904.8,451.947 905.267,452.514C905.74,453.088 906.559,453.275 907.476,453.34C908.786,453.433 910.294,453.184 911.77,452.7C916.982,450.992 921.334,445.845 922.623,443.745Z"/>
                            </g>
                            <path d="M-387.76,343.01C-389.999,341.117 -391.417,338.195 -390.964,335.021C-390.808,333.93 -390.43,332.792 -389.759,331.65C-390.313,331.863 -390.903,332.134 -391.537,332.471C-392.245,332.847 -393.107,332.783 -393.752,332.307C-394.397,331.83 -394.712,331.026 -394.56,330.238C-394.098,327.83 -393.104,326.062 -391.622,324.502C-392.482,324.859 -393.284,325.361 -393.965,326.045C-394.648,326.731 -395.713,326.856 -396.537,326.347C-397.36,325.839 -397.724,324.83 -397.416,323.912C-395.609,318.53 -392.514,315.321 -388.519,313.846C-388.688,309.038 -387.963,306.379 -384.259,299.747C-385.788,297.277 -385.775,295.131 -385.378,292.878C-385.144,291.548 -384.735,290.172 -384.578,288.6C-384.517,287.991 -384.192,287.44 -383.688,287.093C-383.185,286.745 -382.555,286.637 -381.964,286.795C-374.9,288.692 -376.458,288.617 -371.881,289.709C-369.26,288.098 -366.108,287.202 -364.32,286.788C-364.188,285.661 -364.252,283.838 -365.564,282.212C-366.151,281.485 -366.182,280.457 -365.641,279.696C-365.099,278.935 -364.117,278.627 -363.238,278.943C-361.295,279.642 -359.621,280.582 -358.205,281.709C-358.457,280.713 -358.817,279.769 -359.276,279.047C-359.783,278.248 -359.689,277.208 -359.046,276.514C-358.403,275.82 -357.374,275.646 -356.539,276.09C-355.438,276.676 -354.357,277.488 -353.347,278.43C-353.428,278.284 -353.513,278.135 -353.6,277.982C-354.072,277.161 -353.931,276.126 -353.257,275.461C-352.583,274.797 -351.546,274.67 -350.731,275.152C-346.202,277.838 -342.313,283.196 -340.959,286.473C-339.171,286.938 -335.711,287.981 -332.956,289.684C-328.38,288.592 -329.938,288.667 -322.874,286.771C-322.283,286.612 -321.653,286.721 -321.15,287.068C-320.646,287.416 -320.321,287.967 -320.261,288.575C-320.103,290.148 -319.694,291.523 -319.46,292.853C-319.063,295.107 -319.05,297.253 -320.579,299.723C-316.824,306.455 -316.424,308.677 -316.677,313.609C-312.119,316.069 -309.511,318.995 -307.894,324.476C-307.644,325.323 -307.955,326.235 -308.67,326.753C-309.384,327.271 -310.348,327.282 -311.074,326.781C-311.595,326.423 -312.088,326.11 -312.559,325.84C-311.686,327.277 -311.111,328.907 -310.752,330.77C-310.577,331.685 -311.029,332.605 -311.861,333.024C-312.692,333.443 -313.701,333.259 -314.332,332.574C-314.577,332.307 -314.811,332.071 -315.039,331.863C-314.134,334.466 -314.427,337.127 -315.188,339.347C-315.728,340.923 -316.523,342.261 -317.281,343.214C-315.616,346.644 -311.898,354.257 -310.706,362.547C-309.621,370.089 -310.58,378.133 -316.407,384.45C-318.752,386.992 -321.923,389.272 -326.139,391.102C-326.365,391.2 -326.593,391.297 -326.825,391.392C-331.658,393.381 -337.807,394.799 -345.578,395.387C-345.674,395.394 -345.77,395.401 -345.866,395.408C-348.491,395.599 -351.299,395.696 -354.302,395.688C-356.668,395.683 -358.905,395.606 -361.02,395.463C-361.108,395.46 -361.196,395.453 -361.283,395.445C-368.947,394.905 -374.988,393.496 -379.715,391.49C-380.135,391.312 -380.545,391.129 -380.944,390.941C-385.181,388.952 -388.274,386.454 -390.478,383.675C-395.697,377.097 -396.131,368.8 -394.649,361.187C-393.136,353.42 -389.653,346.418 -387.76,343.01ZM-322.148,342.369C-321.969,342.235 -320.953,341.307 -320.225,340.252C-319.592,339.337 -319.232,338.294 -319.13,337.996C-318.339,335.695 -318.309,332.631 -321.157,330.222C-321.784,329.691 -322.041,328.84 -321.812,328.051C-321.583,327.261 -320.911,326.68 -320.097,326.567C-319.168,326.439 -318.307,326.37 -317.469,326.419C-318.412,325.505 -319.625,324.723 -321.167,324.035C-322.044,323.643 -322.54,322.702 -322.367,321.757C-322.194,320.812 -321.396,320.108 -320.437,320.053C-318.278,319.929 -316.442,319.968 -314.533,320.477C-315.84,318.941 -317.534,317.796 -319.749,316.716C-320.508,316.346 -320.968,315.554 -320.915,314.712C-320.574,309.345 -320.79,307.756 -324.849,300.635C-325.268,299.898 -325.2,298.98 -324.675,298.314C-323.295,296.561 -323.293,295.107 -323.563,293.576C-323.687,292.871 -323.854,292.153 -324.011,291.403C-328.967,292.8 -327.804,292.769 -332.884,293.946C-333.464,294.081 -334.073,293.961 -334.559,293.616C-337.766,291.343 -342.709,290.326 -342.965,290.274L-342.975,290.272C-343.786,290.108 -344.423,289.48 -344.599,288.672L-344.6,288.67C-344.869,287.435 -346.01,285.407 -347.638,283.41C-347.604,284.516 -347.648,285.801 -347.772,287.36C-347.851,288.354 -348.623,289.153 -349.614,289.265C-350.605,289.377 -351.537,288.772 -351.836,287.82C-352.173,286.748 -352.845,285.472 -353.728,284.231C-353.641,285.794 -353.753,287.205 -354.068,288.13C-354.334,288.913 -355.038,289.465 -355.862,289.535C-356.686,289.606 -357.474,289.182 -357.87,288.456C-358.453,287.385 -359.21,286.402 -360.142,285.541C-360.061,287.677 -360.608,289.24 -360.608,289.24C-360.861,289.967 -361.494,290.496 -362.254,290.614C-362.254,290.614 -367.033,291.339 -370.279,293.641C-370.765,293.985 -371.374,294.105 -371.954,293.971C-377.034,292.794 -375.871,292.824 -380.827,291.428C-380.984,292.177 -381.151,292.895 -381.275,293.6C-381.545,295.131 -381.543,296.586 -380.163,298.339C-379.638,299.005 -379.57,299.922 -379.989,300.659C-384.06,307.802 -384.618,309.851 -384.276,315.234C-384.212,316.245 -384.886,317.156 -385.872,317.392C-387.587,317.802 -389.08,318.618 -390.334,319.865C-388.268,319.49 -386.187,319.527 -384.447,319.814C-383.599,319.953 -382.924,320.599 -382.747,321.439C-382.57,322.28 -382.927,323.143 -383.646,323.613C-385.48,324.812 -387.043,325.78 -388.223,326.924C-386.68,326.691 -385.332,326.798 -384.057,327.052C-383.24,327.215 -382.599,327.849 -382.426,328.663C-382.253,329.478 -382.582,330.318 -383.263,330.798C-385.486,332.367 -386.611,334.011 -386.839,335.61C-386.958,336.443 -386.627,338.035 -385.634,339.251C-385.057,339.958 -382.697,342.129 -379.041,343.289C-375.987,344.259 -371.849,344.304 -368.791,344.271C-367.641,344.258 -366.698,345.182 -366.685,346.331C-366.673,347.481 -367.596,348.425 -368.746,348.437C-376.175,348.518 -380.53,347.831 -384.337,345.421C-386.127,348.689 -389.199,355.004 -390.559,361.984C-391.816,368.438 -391.639,375.508 -387.214,381.085C-385.44,383.322 -383.013,385.299 -379.783,386.914C-378.756,386.117 -377.134,385.006 -375.206,384.208C-372.795,383.209 -369.939,382.719 -367.132,383.661C-364.474,384.553 -361.75,386.746 -359.606,391.379C-357.919,391.469 -356.148,391.517 -354.292,391.522C-351.815,391.528 -349.48,391.463 -347.281,391.334C-345.136,386.694 -342.404,384.498 -339.733,383.605C-336.919,382.664 -334.054,383.154 -331.634,384.15C-329.635,384.973 -327.964,386.129 -326.939,386.929C-323.784,385.442 -321.335,383.647 -319.469,381.625C-313.284,374.919 -313.836,365.864 -315.827,358.287C-317.091,353.48 -318.947,349.21 -320.321,346.297C-321.655,347.243 -323.295,347.799 -325.656,348.111C-327.792,348.394 -330.621,348.47 -334.564,348.515C-335.714,348.528 -336.658,347.605 -336.671,346.455C-336.684,345.305 -335.761,344.361 -334.611,344.348C-330.89,344.306 -328.219,344.248 -326.203,343.981C-324.306,343.729 -323.219,343.175 -322.148,342.369ZM-342.315,390.905C-338.246,390.433 -334.721,389.703 -331.678,388.754C-332.153,388.488 -332.671,388.229 -333.221,388.003C-334.774,387.363 -336.606,386.953 -338.412,387.557C-339.804,388.022 -341.121,389.07 -342.315,390.905ZM-375.128,388.798C-372.126,389.772 -368.625,390.512 -364.557,390.973C-365.752,389.13 -367.067,388.077 -368.457,387.611C-370.252,387.009 -372.07,387.419 -373.612,388.057C-374.151,388.281 -374.66,388.535 -375.128,388.798Z"/>
                        </g>
                        <g transform="matrix(1,0,0,1,0.890262,-6.65744)">
                            <path d="M-352.349,334.187C-351.49,335.626 -350.758,336.366 -349.946,336.491C-349.384,336.577 -348.851,336.311 -348.295,335.933C-347.51,335.399 -346.726,334.618 -345.912,333.777C-345.432,333.281 -344.64,333.268 -344.144,333.748C-343.648,334.228 -343.636,335.02 -344.115,335.515C-344.79,336.213 -345.456,336.866 -346.114,337.41C-346.323,339.128 -347.473,340.832 -348.96,342.099C-350.593,343.489 -352.595,344.31 -353.942,344.24C-355.347,344.167 -357.058,343.482 -358.442,342.322C-359.691,341.275 -360.664,339.857 -360.969,338.223C-362.33,337.35 -363.337,336.117 -363.687,335.644C-363.698,335.63 -364.071,335.233 -364.082,334.668C-364.094,333.982 -363.516,333.519 -362.745,333.629C-362.212,333.705 -361.738,334.198 -361.738,334.198C-361.5,334.519 -360.806,335.306 -359.926,335.946C-359.734,336.086 -359.529,336.219 -359.313,336.331C-359.272,336.35 -359.232,336.371 -359.192,336.391C-358.891,336.534 -358.571,336.635 -358.233,336.659C-357.198,336.735 -356.151,336.055 -355.039,334.202C-356.896,333.711 -357.932,332.169 -358.638,330.5C-359.938,327.428 -357.421,326.644 -353.728,326.636C-349.708,326.627 -347.555,327.226 -348.819,330.5C-349.461,332.163 -350.516,333.681 -352.349,334.187ZM-349.422,338.993C-349.723,339.018 -350.024,339.008 -350.326,338.962C-351.387,338.798 -352.531,338.143 -353.687,336.649C-355.125,338.504 -356.617,339.127 -357.947,339.164C-357.648,339.633 -357.261,340.05 -356.836,340.406C-355.901,341.19 -354.763,341.694 -353.813,341.743C-352.923,341.789 -351.66,341.114 -350.581,340.195C-350.155,339.833 -349.753,339.428 -349.422,338.993Z"/>
                        </g>
                        <g transform="matrix(1,0,0,1,-0.420073,0)">
                            <path d="M-348.112,332.335C-348.443,332.77 -348.845,333.176 -349.27,333.538C-350.349,334.456 -351.612,335.132 -352.503,335.086C-353.452,335.037 -354.591,334.532 -355.526,333.749C-355.951,333.392 -356.337,332.975 -356.637,332.506C-355.307,332.47 -353.815,331.846 -352.377,329.991C-351.221,331.485 -350.077,332.141 -349.016,332.304C-348.714,332.351 -348.413,332.36 -348.112,332.335Z" style="fill:rgb(255,188,209);"/>
                        </g>
                    </g>
                </g>
            </g>
            <g transform="matrix(1.14875,0,0,1.69908,1825.7,-677.224)">
                <g transform="matrix(123.49,0,0,123.49,490.215,633.276)">
                    <path d="M0.649,0.014C0.65,-0.007 0.648,-0.029 0.648,-0.048C0.648,-0.138 0.647,-0.238 0.647,-0.328C0.647,-0.402 0.645,-0.476 0.645,-0.55C0.645,-0.558 0.644,-0.566 0.643,-0.575C0.642,-0.582 0.64,-0.59 0.638,-0.597C0.635,-0.604 0.631,-0.609 0.626,-0.614C0.619,-0.62 0.612,-0.624 0.603,-0.625C0.595,-0.626 0.587,-0.627 0.577,-0.627C0.534,-0.626 0.492,-0.557 0.473,-0.526C0.429,-0.453 0.406,-0.418 0.378,-0.375C0.373,-0.365 0.356,-0.34 0.349,-0.332C0.325,-0.365 0.299,-0.413 0.264,-0.469C0.248,-0.495 0.219,-0.544 0.198,-0.568C0.181,-0.586 0.163,-0.62 0.136,-0.625C0.128,-0.626 0.119,-0.627 0.11,-0.627C0.099,-0.627 0.088,-0.624 0.078,-0.618C0.068,-0.612 0.062,-0.604 0.057,-0.594C0.052,-0.582 0.048,-0.569 0.048,-0.555C0.044,-0.499 0.042,-0.442 0.042,-0.384L0.042,-0.25L0.041,-0.096L0.04,-0.018C0.04,-0 0.041,0.018 0.042,0.036C0.044,0.053 0.053,0.076 0.07,0.087C0.125,0.116 0.17,0.077 0.17,0.032C0.174,0.031 0.175,-0.389 0.176,-0.394C0.219,-0.314 0.26,-0.26 0.292,-0.22C0.304,-0.205 0.326,-0.18 0.348,-0.182C0.386,-0.185 0.409,-0.212 0.513,-0.385C0.515,-0.341 0.514,-0.338 0.514,-0.334C0.515,-0.287 0.515,-0.291 0.515,-0.248L0.516,-0.095L0.516,-0.017C0.517,0.018 0.512,0.065 0.549,0.088C0.564,0.095 0.581,0.098 0.6,0.092C0.611,0.091 0.619,0.087 0.626,0.081C0.631,0.077 0.636,0.07 0.639,0.063C0.645,0.048 0.648,0.03 0.649,0.014Z" style="fill-rule:nonzero;"/>
                </g>
                <g transform="matrix(123.49,0,0,123.49,575.424,633.276)">
                    <path d="M0.499,-0.36C0.494,-0.369 0.486,-0.377 0.476,-0.381C0.467,-0.385 0.459,-0.388 0.452,-0.39C0.444,-0.391 0.435,-0.391 0.426,-0.388C0.42,-0.387 0.415,-0.383 0.409,-0.378C0.403,-0.372 0.399,-0.367 0.393,-0.359C0.391,-0.354 0.387,-0.35 0.385,-0.345C0.372,-0.325 0.363,-0.3 0.352,-0.277C0.343,-0.258 0.334,-0.238 0.324,-0.217L0.272,-0.107C0.246,-0.163 0.218,-0.224 0.193,-0.277C0.181,-0.307 0.169,-0.338 0.147,-0.362C0.125,-0.388 0.072,-0.398 0.05,-0.357C0.03,-0.326 0.047,-0.292 0.062,-0.265C0.105,-0.186 0.147,-0.084 0.182,-0C0.187,0.012 0.194,0.028 0.201,0.043L0.128,0.201C0.126,0.201 0.125,0.204 0.123,0.209C0.121,0.213 0.12,0.22 0.117,0.227C0.116,0.234 0.115,0.241 0.114,0.249C0.114,0.257 0.115,0.265 0.118,0.272C0.122,0.28 0.128,0.287 0.137,0.292C0.151,0.304 0.167,0.309 0.184,0.308C0.204,0.307 0.224,0.288 0.233,0.272C0.236,0.265 0.239,0.26 0.243,0.253C0.261,0.22 0.276,0.187 0.293,0.152L0.341,0.049C0.347,0.039 0.351,0.028 0.356,0.018C0.374,-0.021 0.394,-0.061 0.415,-0.104C0.436,-0.148 0.453,-0.185 0.471,-0.226L0.473,-0.231C0.479,-0.243 0.494,-0.277 0.499,-0.29C0.505,-0.303 0.507,-0.316 0.507,-0.33C0.508,-0.341 0.505,-0.351 0.499,-0.36Z" style="fill-rule:nonzero;"/>
                </g>
                <g transform="matrix(123.49,0,0,123.49,643.096,633.276)">
                    <path d="M0.754,-0.582C0.753,-0.592 0.749,-0.601 0.742,-0.608C0.733,-0.615 0.724,-0.619 0.713,-0.621C0.704,-0.624 0.696,-0.625 0.688,-0.625C0.681,-0.625 0.673,-0.622 0.664,-0.617C0.659,-0.614 0.653,-0.61 0.649,-0.604C0.644,-0.597 0.641,-0.59 0.638,-0.583C0.635,-0.574 0.632,-0.567 0.63,-0.559C0.628,-0.55 0.627,-0.543 0.625,-0.536L0.62,-0.519C0.603,-0.449 0.583,-0.375 0.566,-0.303C0.556,-0.261 0.543,-0.195 0.534,-0.165C0.514,-0.205 0.49,-0.281 0.467,-0.34C0.454,-0.372 0.436,-0.408 0.414,-0.417C0.363,-0.436 0.342,-0.391 0.32,-0.327C0.299,-0.266 0.281,-0.205 0.264,-0.146C0.249,-0.187 0.23,-0.294 0.218,-0.341C0.203,-0.4 0.184,-0.467 0.172,-0.536C0.171,-0.543 0.169,-0.55 0.167,-0.559C0.164,-0.567 0.162,-0.574 0.159,-0.583L0.147,-0.604C0.143,-0.61 0.138,-0.614 0.133,-0.617C0.125,-0.622 0.116,-0.625 0.108,-0.625C0.101,-0.625 0.092,-0.624 0.083,-0.621C0.073,-0.619 0.063,-0.615 0.056,-0.608C0.048,-0.601 0.043,-0.592 0.042,-0.582C0.04,-0.569 0.041,-0.556 0.043,-0.542C0.059,-0.453 0.065,-0.416 0.077,-0.37C0.09,-0.323 0.1,-0.28 0.11,-0.239L0.151,-0.078L0.171,-0.003C0.175,0.015 0.183,0.032 0.189,0.051C0.194,0.064 0.204,0.077 0.217,0.085C0.287,0.13 0.315,0.043 0.335,-0.011C0.344,-0.037 0.37,-0.137 0.394,-0.196C0.409,-0.162 0.445,-0.038 0.455,-0.018C0.471,0.015 0.482,0.062 0.514,0.084C0.556,0.114 0.588,0.089 0.607,0.049C0.618,0.026 0.625,0.003 0.631,-0.019C0.649,-0.085 0.667,-0.173 0.683,-0.239C0.702,-0.32 0.728,-0.417 0.746,-0.499L0.747,-0.503C0.749,-0.516 0.752,-0.529 0.754,-0.542C0.757,-0.556 0.757,-0.569 0.754,-0.582Z" style="fill-rule:nonzero;"/>
                </g>
                <g transform="matrix(123.49,0,0,123.49,734.973,633.276)">
                    <path d="M0.169,-0.366C0.114,-0.339 0.071,-0.29 0.05,-0.211C0.01,-0.061 0.099,0.084 0.258,0.093C0.302,0.097 0.351,0.089 0.391,0.071C0.422,0.057 0.451,0.032 0.469,0.003C0.508,-0.061 0.527,-0.139 0.505,-0.212C0.494,-0.253 0.47,-0.301 0.44,-0.331C0.365,-0.403 0.258,-0.41 0.169,-0.366ZM0.199,-0.232C0.241,-0.271 0.33,-0.276 0.363,-0.222C0.409,-0.148 0.363,-0.026 0.277,-0.031C0.24,-0.033 0.2,-0.048 0.187,-0.068C0.154,-0.115 0.16,-0.194 0.199,-0.232Z" style="fill-rule:nonzero;"/>
                </g>
                <g transform="matrix(123.49,0,0,123.49,803.51,633.276)">
                    <path d="M0.582,-0.147C0.58,-0.193 0.581,-0.25 0.561,-0.292C0.532,-0.355 0.458,-0.384 0.394,-0.36C0.375,-0.352 0.357,-0.341 0.343,-0.327C0.314,-0.361 0.273,-0.374 0.225,-0.365C0.187,-0.358 0.169,-0.335 0.154,-0.302C0.152,-0.342 0.151,-0.395 0.102,-0.396C0.081,-0.397 0.058,-0.392 0.049,-0.367C0.038,-0.338 0.041,-0.299 0.042,-0.268L0.042,-0.124C0.041,-0.069 0.043,0.021 0.052,0.05C0.065,0.095 0.144,0.093 0.158,0.052C0.172,0.014 0.168,-0.051 0.168,-0.137C0.168,-0.172 0.165,-0.216 0.202,-0.234C0.22,-0.243 0.255,-0.238 0.265,-0.219C0.273,-0.202 0.272,-0.167 0.273,-0.148C0.276,-0.117 0.273,-0.084 0.273,-0.053C0.273,-0.024 0.273,-0 0.276,0.031C0.28,0.083 0.323,0.096 0.356,0.075C0.385,0.057 0.376,0.006 0.378,-0.028C0.379,-0.07 0.379,-0.106 0.378,-0.149C0.377,-0.165 0.378,-0.184 0.378,-0.201C0.385,-0.244 0.426,-0.256 0.449,-0.235C0.465,-0.222 0.467,-0.182 0.467,-0.157C0.466,-0.107 0.467,-0.084 0.467,-0.054C0.467,-0.025 0.468,0.007 0.47,0.038C0.473,0.09 0.525,0.096 0.558,0.075C0.586,0.057 0.581,0.007 0.582,-0.026C0.584,-0.068 0.584,-0.104 0.582,-0.147Z" style="fill-rule:nonzero;"/>
                </g>
                <g transform="matrix(123.49,0,0,123.49,880.568,633.276)">
                    <path d="M0.042,-0.546C0.039,-0.472 0.042,-0.447 0.042,-0.419C0.043,-0.317 0.042,-0.215 0.042,-0.112C0.042,0.105 0.032,0.089 0.197,0.089C0.34,0.089 0.433,0.024 0.435,-0.124C0.437,-0.249 0.377,-0.34 0.23,-0.339C0.211,-0.338 0.165,-0.338 0.165,-0.338C0.165,-0.338 0.164,-0.36 0.165,-0.38L0.165,-0.518C0.164,-0.558 0.171,-0.603 0.123,-0.616C0.073,-0.63 0.045,-0.594 0.042,-0.546ZM0.229,-0.023C0.2,-0.021 0.165,-0.025 0.165,-0.025L0.167,-0.108L0.167,-0.228C0.225,-0.23 0.257,-0.236 0.295,-0.204C0.337,-0.169 0.335,-0.094 0.305,-0.053C0.29,-0.034 0.267,-0.025 0.229,-0.023Z" style="fill-rule:nonzero;"/>
                </g>
                <g transform="matrix(123.49,0,0,123.49,939.35,633.276)">
                    <path d="M0.157,-0.335C0.108,-0.311 0.069,-0.267 0.05,-0.195C0.021,-0.086 0.054,0.039 0.168,0.069C0.212,0.081 0.248,0.083 0.291,0.078C0.341,0.071 0.375,0.05 0.406,0.01C0.424,0.039 0.453,0.083 0.494,0.075C0.528,0.069 0.539,0.035 0.532,0.004C0.517,-0.061 0.474,-0.11 0.464,-0.178C0.456,-0.228 0.439,-0.269 0.404,-0.304C0.336,-0.37 0.238,-0.376 0.157,-0.335ZM0.182,-0.218C0.22,-0.255 0.303,-0.26 0.334,-0.209C0.377,-0.14 0.334,-0.026 0.254,-0.031C0.219,-0.033 0.183,-0.047 0.17,-0.066C0.14,-0.109 0.144,-0.182 0.182,-0.218Z" style="fill-rule:nonzero;"/>
                </g>
                <g transform="matrix(123.49,0,0,123.49,995.785,633.276)">
                    <path d="M0.467,-0.355C0.447,-0.403 0.372,-0.389 0.333,-0.39L0.323,-0.39C0.323,-0.429 0.324,-0.491 0.315,-0.522C0.305,-0.559 0.259,-0.588 0.219,-0.556C0.189,-0.533 0.19,-0.461 0.192,-0.428C0.193,-0.416 0.193,-0.403 0.194,-0.39C0.155,-0.391 0.105,-0.391 0.081,-0.385C0.047,-0.376 0.025,-0.326 0.055,-0.291C0.074,-0.268 0.148,-0.267 0.18,-0.267L0.195,-0.267C0.195,-0.195 0.194,-0.12 0.193,-0.064C0.192,-0.029 0.189,0.035 0.211,0.069C0.225,0.09 0.263,0.1 0.304,0.083C0.331,0.073 0.329,0.003 0.329,-0.038C0.331,-0.096 0.328,-0.188 0.325,-0.268C0.358,-0.269 0.422,-0.273 0.445,-0.283C0.468,-0.292 0.477,-0.33 0.467,-0.355Z" style="fill-rule:nonzero;"/>
                </g>
            </g>
            <g transform="matrix(2.31284,0,0,3.62826,1243.01,-1540.11)">
                <g transform="matrix(123.49,0,0,123.49,490.215,633.276)">
                    <path d="M0.571,-0.082C0.557,-0.111 0.523,-0.12 0.499,-0.112C0.468,-0.103 0.441,-0.071 0.419,-0.06C0.351,-0.022 0.265,-0.041 0.221,-0.104C0.165,-0.184 0.178,-0.32 0.22,-0.41C0.26,-0.496 0.376,-0.521 0.441,-0.444C0.46,-0.42 0.481,-0.393 0.518,-0.403C0.607,-0.425 0.541,-0.535 0.499,-0.572C0.433,-0.633 0.298,-0.645 0.216,-0.598C0.108,-0.538 0.051,-0.413 0.044,-0.315C0.035,-0.206 0.041,-0.056 0.134,0.021C0.212,0.086 0.323,0.108 0.411,0.089C0.49,0.07 0.607,-0.006 0.571,-0.082Z" style="fill-rule:nonzero;"/>
                </g>
                <g transform="matrix(123.49,0,0,123.49,566.532,633.276)">
                    <path d="M0.586,-0.567C0.586,-0.567 0.574,-0.627 0.518,-0.628C0.448,-0.629 0.443,-0.562 0.443,-0.562C0.447,-0.454 0.44,-0.276 0.43,-0.174C0.428,-0.158 0.422,-0.138 0.414,-0.123C0.394,-0.083 0.356,-0.063 0.323,-0.059C0.287,-0.055 0.248,-0.063 0.222,-0.101C0.193,-0.143 0.188,-0.211 0.188,-0.29C0.188,-0.332 0.194,-0.479 0.188,-0.568C0.187,-0.581 0.185,-0.592 0.178,-0.602C0.152,-0.637 0.085,-0.638 0.06,-0.604C0.038,-0.572 0.042,-0.523 0.041,-0.488C0.039,-0.434 0.041,-0.325 0.041,-0.273C0.04,-0.163 0.052,-0.064 0.132,0.014C0.185,0.065 0.25,0.088 0.32,0.085C0.4,0.081 0.486,0.043 0.528,-0.029C0.542,-0.053 0.556,-0.085 0.565,-0.113C0.593,-0.207 0.601,-0.439 0.586,-0.567Z" style="fill-rule:nonzero;"/>
                </g>
                <g transform="matrix(123.49,0,0,123.49,644.825,633.276)">
                    <path d="M0.434,-0.283C0.536,-0.345 0.537,-0.486 0.452,-0.563C0.445,-0.571 0.435,-0.578 0.425,-0.583C0.415,-0.588 0.404,-0.593 0.393,-0.597C0.351,-0.613 0.301,-0.618 0.257,-0.619C0.229,-0.62 0.202,-0.619 0.175,-0.619C0.107,-0.62 0.04,-0.617 0.04,-0.542L0.04,0.026C0.04,0.031 0.041,0.037 0.044,0.044C0.048,0.065 0.056,0.083 0.079,0.09C0.131,0.101 0.188,0.099 0.24,0.098C0.281,0.098 0.339,0.092 0.378,0.083C0.522,0.053 0.552,-0.067 0.516,-0.176C0.5,-0.225 0.473,-0.258 0.434,-0.283ZM0.259,-0.018C0.226,-0.017 0.196,-0.022 0.181,-0.036C0.167,-0.05 0.171,-0.076 0.171,-0.094C0.171,-0.126 0.175,-0.162 0.173,-0.196C0.172,-0.233 0.197,-0.229 0.235,-0.23C0.274,-0.23 0.316,-0.225 0.347,-0.201C0.393,-0.168 0.402,-0.086 0.366,-0.044C0.35,-0.025 0.3,-0.02 0.259,-0.018ZM0.279,-0.498C0.341,-0.496 0.382,-0.476 0.377,-0.416C0.373,-0.368 0.347,-0.345 0.299,-0.337C0.256,-0.33 0.174,-0.319 0.175,-0.373C0.175,-0.397 0.176,-0.422 0.176,-0.447C0.174,-0.509 0.196,-0.5 0.279,-0.498Z" style="fill-rule:nonzero;"/>
                </g>
                <g transform="matrix(123.49,0,0,123.49,713.609,633.276)">
                    <path d="M0.177,-0.505L0.377,-0.506L0.422,-0.506C0.432,-0.506 0.441,-0.506 0.451,-0.508C0.459,-0.509 0.468,-0.51 0.476,-0.512C0.484,-0.515 0.49,-0.519 0.495,-0.522C0.502,-0.529 0.506,-0.535 0.507,-0.543C0.509,-0.549 0.509,-0.557 0.509,-0.565C0.509,-0.575 0.506,-0.584 0.5,-0.593C0.493,-0.601 0.483,-0.607 0.472,-0.61C0.458,-0.615 0.443,-0.619 0.428,-0.619C0.413,-0.62 0.397,-0.62 0.382,-0.621L0.378,-0.621C0.327,-0.622 0.281,-0.622 0.228,-0.621C0.173,-0.62 0.17,-0.62 0.122,-0.62L0.122,-0.619C0.118,-0.62 0.115,-0.62 0.11,-0.62C0.098,-0.62 0.089,-0.617 0.079,-0.611C0.069,-0.606 0.063,-0.597 0.058,-0.587C0.052,-0.575 0.048,-0.562 0.047,-0.548C0.047,-0.535 0.046,-0.522 0.045,-0.508L0.045,-0.503C0.044,-0.459 0.043,-0.426 0.043,-0.378L0.043,-0.245L0.041,-0.101L0.041,-0.023C0.041,-0.018 0.04,-0.012 0.04,-0.007L0.04,0.009C0.041,0.016 0.042,0.023 0.043,0.029C0.043,0.036 0.045,0.043 0.047,0.05C0.048,0.052 0.05,0.054 0.051,0.056C0.051,0.057 0.052,0.06 0.054,0.062C0.058,0.071 0.064,0.077 0.071,0.081C0.082,0.088 0.095,0.09 0.109,0.089C0.151,0.089 0.156,0.089 0.208,0.09C0.264,0.091 0.318,0.091 0.37,0.09L0.376,0.09C0.391,0.089 0.407,0.089 0.422,0.088C0.439,0.088 0.454,0.085 0.468,0.079C0.48,0.076 0.489,0.069 0.496,0.061C0.503,0.052 0.506,0.043 0.506,0.032C0.507,0.024 0.506,0.016 0.505,0.01C0.503,0.002 0.499,-0.004 0.492,-0.011C0.487,-0.015 0.48,-0.019 0.472,-0.022C0.464,-0.024 0.455,-0.025 0.445,-0.027C0.437,-0.028 0.427,-0.028 0.417,-0.028L0.37,-0.028L0.171,-0.03L0.173,-0.226L0.358,-0.227L0.405,-0.227C0.415,-0.227 0.424,-0.228 0.433,-0.23C0.443,-0.231 0.452,-0.233 0.459,-0.235C0.467,-0.237 0.474,-0.24 0.478,-0.245C0.486,-0.251 0.49,-0.258 0.491,-0.265C0.493,-0.272 0.493,-0.281 0.493,-0.288C0.493,-0.298 0.49,-0.308 0.483,-0.317C0.476,-0.325 0.467,-0.331 0.455,-0.335C0.441,-0.339 0.426,-0.343 0.41,-0.344C0.395,-0.344 0.38,-0.345 0.364,-0.345L0.359,-0.345C0.307,-0.346 0.269,-0.346 0.215,-0.345L0.175,-0.345L0.177,-0.502L0.177,-0.505Z" style="fill-rule:nonzero;"/>
                </g>
            </g>
        </g>
    </g>
</svg>
